<?xml version="1.0" encoding="UTF-8"?><svg id="a" xmlns="http://www.w3.org/2000/svg" viewBox="0 0 1000 1000"><defs><style>.aj,.ak,.al{fill-rule:evenodd;}.aj,.am{fill:#fbea26;}.ak{fill:#fff;}.an,.al{fill:#b4b4b4;}.ao{fill:#e5232e;}</style></defs><path id="b" class="ao" d="m6,644.15l52.03-109.76h935.97l-38.23,109.31-949.77.45Z"/><g id="c"><path id="d" class="ak" d="m112.14,563.45h-11.12l-7.27,31.84c-1.32,5.83-5.18,9.25-12.67,9.25-5.07,0-8.59-2.98-7.05-9.69l7.15-31.4h-11.13l-7.27,32.06c-1,4.84-.78,8.7,1.32,11.68,3.53,4.85,10.47,5.84,15.2,5.84,13.1,0,22.69-5.4,25.55-18.17l7.27-31.4Z"/><polygon id="e" class="ak" points="145.29 597.04 145.07 597.04 132.19 563.45 120.73 563.45 109.61 611.8 119.74 611.8 127.67 577.33 127.78 577.33 141.22 611.8 152.01 611.8 163.14 563.45 153 563.45 145.29 597.04"/><polygon id="f" class="ak" points="181.97 563.45 171.18 563.45 160.05 611.8 170.96 611.8 181.97 563.45"/><polygon id="g" class="ak" points="201.03 600.02 200.92 600.02 198.16 563.45 186.49 563.45 192.99 611.8 203.34 611.8 232.09 563.45 220.74 563.45 201.03 600.02"/><polygon id="h" class="ak" points="275.71 563.45 237.49 563.45 226.36 611.8 265.9 611.8 267.89 603.22 239.03 603.22 241.89 590.66 267.23 590.66 269.21 582.18 243.88 582.18 246.19 571.93 273.84 571.93 275.71 563.45"/><path id="i" class="ak" d="m273.17,611.8h10.69l4.41-18.94h11.23c8.04,0,7.82,2.54,6.38,9.14-1.21,4.95-1.32,7.49-1.1,9.8h12l.33-1.32c-2.1-.77-1.77-2.53-.11-9.58,2.09-9.03.11-10.57-3.86-12.33,5.62-1.54,9.48-6.17,10.69-11.46.99-4.18.66-13.66-13.22-13.66h-26.32l-11.12,48.36Zm16.86-27.09l2.97-12.89h13.66c6.39,0,6.72,3.75,6.17,6.28-1.11,4.74-4.3,6.61-10.03,6.61h-12.77Z"/><path id="j" class="ak" d="m324.72,596.94c-1.32,5.94-.44,16.08,18.62,16.08,4.52,0,20.82-1.22,24.12-15.76,1.99-8.7-3.86-11.46-10.69-13l-12-2.98c-2.1-.44-5.18-1.21-4.3-4.96.99-4.4,6.16-5.83,10.35-5.83,9.47,0,9.14,5.06,9.03,7.27h10.35c1.32-5.95-.77-15.65-16.63-15.65-16.96,0-22.25,9.48-23.46,14.87-2.42,10.69,5.29,12.45,13.22,14.21l5.39,1.21c5.18,1.21,8.92,2.2,8.04,6.06-1.21,5.07-7.15,6.28-12.34,6.28-9.47,0-9.8-5.18-9.25-7.82h-10.46Z"/><polygon id="k" class="ak" points="391.91 563.45 381.12 563.45 369.99 611.8 380.9 611.8 391.91 563.45"/><path id="l" class="ak" d="m389.49,611.8h22.58c17.18,0,25-14.98,27.43-25.33,2.09-9.14,1.65-23.03-15.98-23.03h-23.02l-11.01,48.36Zm19.83-39.99h10.47c4.63,0,11.68,1.11,8.37,15.42-1.77,7.93-6.61,16.2-15.53,16.2h-10.57l7.27-31.62Z"/><path id="m" class="ak" d="m453.59,601.78h19.17l1.1,10.03h11.78l-7.26-48.36h-12.56l-29.63,48.36h11.46l5.94-10.03Zm15.87-27.42h.11l2.1,19.05h-13.22l11.01-19.05Z"/><path id="n" class="ak" d="m491.04,611.8h22.59c17.18,0,25.11-14.98,27.42-25.33,2.1-9.14,1.66-23.03-15.85-23.03h-23.03l-11.12,48.36Zm19.83-39.99h10.46c4.63,0,11.79,1.11,8.49,15.42-1.87,7.93-6.72,16.2-15.53,16.2h-10.58l7.15-31.62Z"/><polygon id="o" class="ak" points="591.28 563.45 552.94 563.45 541.93 611.8 581.47 611.8 583.35 603.22 554.49 603.22 557.35 590.66 582.8 590.66 584.78 582.18 559.33 582.18 561.65 571.93 589.29 571.93 591.28 563.45"/><path id="p" class="ak" d="m621.79,594.3h12.56c13.99,0,19.05-11.02,20.16-15.43,2.09-9.47-2.64-15.42-12.67-15.42h-23.79l-11.12,48.36h10.9l3.96-17.51Zm1.99-8.26l3.19-14.21h8.7c6.72,0,9.04,1.88,8.04,6.61-.55,2.2-1.75,7.6-9.9,7.6h-10.02Z"/><path id="q" class="ak" d="m661.78,601.78h19.16l1.1,10.03h11.79l-7.27-48.36h-12.56l-29.63,48.36h11.46l5.95-10.03Zm15.86-27.42h.11l2.09,19.05h-13.33l11.12-19.05Z"/><path id="r" class="ak" d="m751.98,563.45h-11.02l-7.38,31.84c-1.32,5.83-5.07,9.25-12.55,9.25-5.07,0-8.6-2.98-7.05-9.69l7.15-31.4h-11.12l-7.37,32.06c-.88,4.84-.78,8.7,1.43,11.68,3.53,4.85,10.36,5.84,15.21,5.84,13.1,0,22.69-5.4,25.55-18.17l7.16-31.4Z"/><polygon id="s" class="ak" points="772.03 563.45 761.13 563.45 750 611.8 786.79 611.8 788.89 602.99 762.89 602.99 772.03 563.45"/><polygon id="t" class="ak" points="813.89 563.45 802.99 563.45 791.97 611.8 802.77 611.8 813.89 563.45"/><path id="u" class="ak" d="m812.12,596.94c-1.43,5.94-.44,16.08,18.62,16.08,4.52,0,20.82-1.22,24.13-15.76,1.98-8.7-3.97-11.46-10.7-13l-12-2.98c-2.09-.44-5.29-1.21-4.4-4.96,1-4.4,6.28-5.83,10.46-5.83,9.48,0,9.14,5.06,8.92,7.27h10.46c1.33-5.95-.77-15.65-16.74-15.65-16.84,0-22.14,9.48-23.45,14.87-2.43,10.69,5.39,12.45,13.32,14.21l5.28,1.21c5.29,1.21,8.92,2.2,8.15,6.06-1.21,5.07-7.26,6.28-12.33,6.28-9.58,0-9.8-5.18-9.26-7.82h-10.46Z"/><polygon id="v" class="ak" points="889.45 571.93 905.2 571.93 907.18 563.45 864.77 563.45 862.9 571.93 878.55 571.93 869.5 611.8 880.42 611.8 889.45 571.93"/><path id="w" class="ak" d="m908.95,601.78h19.17l1.1,10.03h11.79l-7.27-48.36h-12.56l-29.63,48.36h11.46l5.95-10.03Zm15.85-27.42h.11l2.1,19.05h-13.22l11.01-19.05Z"/></g><g id="x"><path id="y" class="al" d="m797.61,388.74l-18.36,38.1h45.42c3.93,0,6.38-.64,9.77-2.65,3.18-1.91,4.88-3.61,6.47-7l5.94-12.32c1.8-3.61.95-6.79-1.06-10.19-2.44-4.14-6.05-5.94-10.83-5.94h-37.36Zm-49.77-26.32h153.69c6.69,0,10.93,2.97,15.17,8.07,7.01,8.6,4.68,18.46,0,28.44l-15.7,33.33c-3.5,7.54-5.52,12.31-11.89,17.72-8.38,7.01-15.6,9.13-26.54,9.13h-99.02c-5.52,14.01-11.78,21.65-24.3,30.04-11.25,7.43-19.53,10.72-33.01,10.72h-22.72l64.32-137.44Z"/><path id="z" class="an" d="m797.61,388.74l-18.36,38.1h45.42c3.93,0,6.38-.64,9.77-2.65,3.18-1.91,4.88-3.61,6.47-7l5.94-12.32c1.8-3.61.95-6.79-1.06-10.19-2.44-4.14-6.05-5.94-10.83-5.94h-37.36Zm-49.77-26.32h153.69c6.69,0,10.93,2.97,15.17,8.07,7.01,8.6,4.68,18.46,0,28.44l-15.7,33.33c-3.5,7.54-5.52,12.31-11.89,17.72-8.38,7.01-15.6,9.13-26.54,9.13h-99.02c-5.52,14.01-11.78,21.65-24.3,30.04-11.25,7.43-19.53,10.72-33.01,10.72h-22.72l64.32-137.44Z"/><path id="aa" class="al" d="m567.18,362.95h58.38l-44.89,96.7c-6.69,14.33-14.33,22.61-27.6,32.16-8.06,5.95-31.2,12.85-50.84,8.6l-37.36-72.49-14.55,31.73c-6.58,14.11-14.44,22.61-27.6,32.16-8.17,5.95-31.31,12.85-50.94,8.6l64.95-137.44h58.48l40.01,67.19,31.95-67.19Z"/><path id="ab" class="al" d="m591.49,499.87l64.42-137.45h58.38l-44.89,96.7c-6.69,14.33-14.33,22.61-27.6,32.16-8.07,5.95-30.68,12.85-50.31,8.6Z"/><path id="ac" class="al" d="m274.98,362.42h-61.14l-40.54,86.5c-6.26,13.05-6.58,24.62,3.71,37.05,11.47,13.69,35.14,19.31,59.55,19.31h44.36c22.29,0,36.94-4.14,54.13-18.26,10.61-8.82,15.82-15.5,21.65-27.91l44.9-96.7h-62.84l-33.01,69.84c-9.13,21.97-14.01,26.85-43.2,26.85-18.46,0-25.57-15.07-20.06-26.85l32.48-69.84Z"/></g><g id="ad"><path id="ae" class="aj" d="m789.6,382.18l-18.36,38.1h45.42c3.93,0,6.38-.64,9.77-2.65,3.18-1.91,4.88-3.61,6.47-7l5.94-12.32c1.8-3.61.95-6.79-1.06-10.19-2.44-4.14-6.05-5.94-10.83-5.94h-37.36Zm-49.77-26.32h153.69c6.69,0,10.93,2.97,15.17,8.07,7.01,8.6,4.68,18.46,0,28.44l-15.7,33.33c-3.5,7.54-5.52,12.31-11.89,17.72-8.38,7.01-15.6,9.13-26.54,9.13h-99.02c-5.52,14.01-11.78,21.65-24.3,30.04-11.25,7.43-19.53,10.72-33.01,10.72h-22.72l64.32-137.44Z"/><path id="af" class="am" d="m789.6,382.18l-18.36,38.1h45.42c3.93,0,6.38-.64,9.77-2.65,3.18-1.91,4.88-3.61,6.47-7l5.94-12.32c1.8-3.61.95-6.79-1.06-10.19-2.44-4.14-6.05-5.94-10.83-5.94h-37.36Zm-49.77-26.32h153.69c6.69,0,10.93,2.97,15.17,8.07,7.01,8.6,4.68,18.46,0,28.44l-15.7,33.33c-3.5,7.54-5.52,12.31-11.89,17.72-8.38,7.01-15.6,9.13-26.54,9.13h-99.02c-5.52,14.01-11.78,21.65-24.3,30.04-11.25,7.43-19.53,10.72-33.01,10.72h-22.72l64.32-137.44Z"/><path id="ag" class="aj" d="m559.17,356.38h58.38l-44.89,96.7c-6.69,14.33-14.33,22.61-27.6,32.16-8.06,5.95-31.2,12.85-50.84,8.6l-37.36-72.49-14.55,31.73c-6.58,14.11-14.44,22.61-27.6,32.16-8.17,5.95-31.31,12.85-50.94,8.6l64.95-137.44h58.48l40.01,67.19,31.95-67.19Z"/><path id="ah" class="aj" d="m583.48,493.31l64.42-137.45h58.38l-44.89,96.7c-6.69,14.33-14.33,22.61-27.6,32.16-8.07,5.95-30.68,12.85-50.31,8.6Z"/><path id="ai" class="aj" d="m266.97,355.85h-61.14l-40.54,86.5c-6.26,13.05-6.58,24.62,3.71,37.05,11.47,13.69,35.14,19.31,59.55,19.31h44.36c22.29,0,36.94-4.14,54.13-18.26,10.61-8.82,15.82-15.5,21.65-27.91l44.9-96.7h-62.84l-33.01,69.84c-9.13,21.97-14.01,26.85-43.2,26.85-18.46,0-25.57-15.07-20.06-26.85l32.48-69.84Z"/></g></svg>